<mxfile host="app.diagrams.net" modified="2020-12-04T13:59:13.207Z" agent="5.0 (Windows NT 10.0; Win64; x64) AppleWebKit/537.36 (KHTML, like Gecko) Chrome/86.0.4240.198 Safari/537.36" etag="N911aZS3h1bDmD24Uwcn" version="13.10.6" type="github">
  <diagram id="ecA78nppTtvyXu002oNl" name="Page-1">
    <mxGraphModel dx="1422" dy="794" grid="1" gridSize="10" guides="1" tooltips="1" connect="1" arrows="1" fold="1" page="1" pageScale="1" pageWidth="827" pageHeight="1169" math="0" shadow="0">
      <root>
        <mxCell id="0" />
        <mxCell id="1" parent="0" />
        <mxCell id="T7uT3LDMt8vaUPLxzDxL-1" value="Scania" style="html=1;" parent="1" vertex="1">
          <mxGeometry x="30" y="110" width="110" height="50" as="geometry" />
        </mxCell>
        <mxCell id="T7uT3LDMt8vaUPLxzDxL-2" value="Saab95" style="html=1;" parent="1" vertex="1">
          <mxGeometry x="310" y="90" width="110" height="50" as="geometry" />
        </mxCell>
        <mxCell id="T7uT3LDMt8vaUPLxzDxL-3" value="Volvo240" style="html=1;" parent="1" vertex="1">
          <mxGeometry x="443.5" y="90" width="110" height="50" as="geometry" />
        </mxCell>
        <mxCell id="T7uT3LDMt8vaUPLxzDxL-4" value="CarModel" style="swimlane;fontStyle=1;align=center;verticalAlign=top;childLayout=stackLayout;horizontal=1;startSize=26;horizontalStack=0;resizeParent=1;resizeParentMax=0;resizeLast=0;collapsible=1;marginBottom=0;" parent="1" vertex="1">
          <mxGeometry x="150" y="230" width="160" height="86" as="geometry" />
        </mxCell>
        <mxCell id="T7uT3LDMt8vaUPLxzDxL-5" value="- timer: TimerListener" style="text;strokeColor=none;fillColor=none;align=left;verticalAlign=top;spacingLeft=4;spacingRight=4;overflow=hidden;rotatable=0;points=[[0,0.5],[1,0.5]];portConstraint=eastwest;" parent="T7uT3LDMt8vaUPLxzDxL-4" vertex="1">
          <mxGeometry y="26" width="160" height="26" as="geometry" />
        </mxCell>
        <mxCell id="T7uT3LDMt8vaUPLxzDxL-6" value="" style="line;strokeWidth=1;fillColor=none;align=left;verticalAlign=middle;spacingTop=-1;spacingLeft=3;spacingRight=3;rotatable=0;labelPosition=right;points=[];portConstraint=eastwest;" parent="T7uT3LDMt8vaUPLxzDxL-4" vertex="1">
          <mxGeometry y="52" width="160" height="8" as="geometry" />
        </mxCell>
        <mxCell id="T7uT3LDMt8vaUPLxzDxL-7" value="+ main(String args)&#xa;" style="text;strokeColor=none;fillColor=none;align=left;verticalAlign=top;spacingLeft=4;spacingRight=4;overflow=hidden;rotatable=0;points=[[0,0.5],[1,0.5]];portConstraint=eastwest;" parent="T7uT3LDMt8vaUPLxzDxL-4" vertex="1">
          <mxGeometry y="60" width="160" height="26" as="geometry" />
        </mxCell>
        <mxCell id="T7uT3LDMt8vaUPLxzDxL-8" value="TimerListener &lt;= ActionListener" style="swimlane;fontStyle=1;align=center;verticalAlign=top;childLayout=stackLayout;horizontal=1;startSize=26;horizontalStack=0;resizeParent=1;resizeParentMax=0;resizeLast=0;collapsible=1;marginBottom=0;" parent="1" vertex="1">
          <mxGeometry x="30" y="380" width="190" height="60" as="geometry" />
        </mxCell>
        <mxCell id="T7uT3LDMt8vaUPLxzDxL-10" value="" style="line;strokeWidth=1;fillColor=none;align=left;verticalAlign=middle;spacingTop=-1;spacingLeft=3;spacingRight=3;rotatable=0;labelPosition=right;points=[];portConstraint=eastwest;" parent="T7uT3LDMt8vaUPLxzDxL-8" vertex="1">
          <mxGeometry y="26" width="190" height="8" as="geometry" />
        </mxCell>
        <mxCell id="T7uT3LDMt8vaUPLxzDxL-11" value="+ actionPerformed(ActionEvenet)" style="text;strokeColor=none;fillColor=none;align=left;verticalAlign=top;spacingLeft=4;spacingRight=4;overflow=hidden;rotatable=0;points=[[0,0.5],[1,0.5]];portConstraint=eastwest;" parent="T7uT3LDMt8vaUPLxzDxL-8" vertex="1">
          <mxGeometry y="34" width="190" height="26" as="geometry" />
        </mxCell>
        <mxCell id="T7uT3LDMt8vaUPLxzDxL-12" value="CarFrame" style="swimlane;fontStyle=1;align=center;verticalAlign=top;childLayout=stackLayout;horizontal=1;startSize=26;horizontalStack=0;resizeParent=1;resizeParentMax=0;resizeLast=0;collapsible=1;marginBottom=0;" parent="1" vertex="1">
          <mxGeometry x="430" y="190" width="160" height="110" as="geometry" />
        </mxCell>
        <mxCell id="T7uT3LDMt8vaUPLxzDxL-13" value="- carView: CarView&#xa;-carController: CarController" style="text;strokeColor=none;fillColor=none;align=left;verticalAlign=top;spacingLeft=4;spacingRight=4;overflow=hidden;rotatable=0;points=[[0,0.5],[1,0.5]];portConstraint=eastwest;" parent="T7uT3LDMt8vaUPLxzDxL-12" vertex="1">
          <mxGeometry y="26" width="160" height="44" as="geometry" />
        </mxCell>
        <mxCell id="T7uT3LDMt8vaUPLxzDxL-14" value="" style="line;strokeWidth=1;fillColor=none;align=left;verticalAlign=middle;spacingTop=-1;spacingLeft=3;spacingRight=3;rotatable=0;labelPosition=right;points=[];portConstraint=eastwest;" parent="T7uT3LDMt8vaUPLxzDxL-12" vertex="1">
          <mxGeometry y="70" width="160" height="8" as="geometry" />
        </mxCell>
        <mxCell id="T7uT3LDMt8vaUPLxzDxL-15" value="+ method(type): type" style="text;strokeColor=none;fillColor=none;align=left;verticalAlign=top;spacingLeft=4;spacingRight=4;overflow=hidden;rotatable=0;points=[[0,0.5],[1,0.5]];portConstraint=eastwest;" parent="T7uT3LDMt8vaUPLxzDxL-12" vertex="1">
          <mxGeometry y="78" width="160" height="32" as="geometry" />
        </mxCell>
        <mxCell id="9KbmFGsRR4CCeTzWTcyC-7" style="edgeStyle=none;orthogonalLoop=1;jettySize=auto;html=1;entryX=0.75;entryY=0;entryDx=0;entryDy=0;endArrow=open;endFill=1;endSize=12;" edge="1" parent="1" source="T7uT3LDMt8vaUPLxzDxL-16" target="T7uT3LDMt8vaUPLxzDxL-40">
          <mxGeometry relative="1" as="geometry" />
        </mxCell>
        <mxCell id="T7uT3LDMt8vaUPLxzDxL-16" value="CarView" style="swimlane;fontStyle=1;align=center;verticalAlign=top;childLayout=stackLayout;horizontal=1;startSize=26;horizontalStack=0;resizeParent=1;resizeParentMax=0;resizeLast=0;collapsible=1;marginBottom=0;" parent="1" vertex="1">
          <mxGeometry x="380" y="383" width="190" height="74" as="geometry" />
        </mxCell>
        <mxCell id="T7uT3LDMt8vaUPLxzDxL-18" value="" style="line;strokeWidth=1;fillColor=none;align=left;verticalAlign=middle;spacingTop=-1;spacingLeft=3;spacingRight=3;rotatable=0;labelPosition=right;points=[];portConstraint=eastwest;" parent="T7uT3LDMt8vaUPLxzDxL-16" vertex="1">
          <mxGeometry y="26" width="190" height="8" as="geometry" />
        </mxCell>
        <mxCell id="T7uT3LDMt8vaUPLxzDxL-19" value="+ getImage(path): BufferedImage&#xa;+ paintComponent(Graphics)" style="text;strokeColor=none;fillColor=none;align=left;verticalAlign=top;spacingLeft=4;spacingRight=4;overflow=hidden;rotatable=0;points=[[0,0.5],[1,0.5]];portConstraint=eastwest;" parent="T7uT3LDMt8vaUPLxzDxL-16" vertex="1">
          <mxGeometry y="34" width="190" height="40" as="geometry" />
        </mxCell>
        <mxCell id="T7uT3LDMt8vaUPLxzDxL-20" value="ACar" style="html=1;" parent="1" vertex="1">
          <mxGeometry x="189" y="20" width="110" height="50" as="geometry" />
        </mxCell>
        <mxCell id="T7uT3LDMt8vaUPLxzDxL-21" value="Extends" style="endArrow=block;endSize=16;endFill=0;html=1;exitX=0.5;exitY=0;exitDx=0;exitDy=0;entryX=0;entryY=0.5;entryDx=0;entryDy=0;" parent="1" source="T7uT3LDMt8vaUPLxzDxL-1" target="T7uT3LDMt8vaUPLxzDxL-20" edge="1">
          <mxGeometry width="160" relative="1" as="geometry">
            <mxPoint x="160" y="50" as="sourcePoint" />
            <mxPoint y="50" as="targetPoint" />
          </mxGeometry>
        </mxCell>
        <mxCell id="T7uT3LDMt8vaUPLxzDxL-22" value="Extends" style="endArrow=block;endSize=16;endFill=0;html=1;exitX=0.5;exitY=0;exitDx=0;exitDy=0;entryX=0.75;entryY=1;entryDx=0;entryDy=0;" parent="1" source="T7uT3LDMt8vaUPLxzDxL-2" target="T7uT3LDMt8vaUPLxzDxL-20" edge="1">
          <mxGeometry width="160" relative="1" as="geometry">
            <mxPoint x="550" y="20" as="sourcePoint" />
            <mxPoint x="390" y="20" as="targetPoint" />
          </mxGeometry>
        </mxCell>
        <mxCell id="T7uT3LDMt8vaUPLxzDxL-23" value="Extends" style="endArrow=block;endSize=16;endFill=0;html=1;exitX=0.5;exitY=0;exitDx=0;exitDy=0;entryX=1;entryY=0.5;entryDx=0;entryDy=0;" parent="1" source="T7uT3LDMt8vaUPLxzDxL-3" target="T7uT3LDMt8vaUPLxzDxL-20" edge="1">
          <mxGeometry width="160" relative="1" as="geometry">
            <mxPoint x="590" y="40" as="sourcePoint" />
            <mxPoint x="310" y="40" as="targetPoint" />
          </mxGeometry>
        </mxCell>
        <mxCell id="T7uT3LDMt8vaUPLxzDxL-24" value="" style="endArrow=open;startArrow=circlePlus;endFill=0;startFill=0;endSize=8;html=1;exitX=0.303;exitY=-0.062;exitDx=0;exitDy=0;exitPerimeter=0;entryX=0.159;entryY=1.079;entryDx=0;entryDy=0;entryPerimeter=0;" parent="1" source="T7uT3LDMt8vaUPLxzDxL-8" target="T7uT3LDMt8vaUPLxzDxL-7" edge="1">
          <mxGeometry width="160" relative="1" as="geometry">
            <mxPoint x="190" y="330" as="sourcePoint" />
            <mxPoint x="50" y="350" as="targetPoint" />
          </mxGeometry>
        </mxCell>
        <mxCell id="T7uT3LDMt8vaUPLxzDxL-25" value="JPanel" style="html=1;" parent="1" vertex="1">
          <mxGeometry x="620" y="550" width="110" height="50" as="geometry" />
        </mxCell>
        <mxCell id="T7uT3LDMt8vaUPLxzDxL-27" value="ActionListener" style="html=1;" parent="1" vertex="1">
          <mxGeometry x="50" y="500" width="110" height="50" as="geometry" />
        </mxCell>
        <mxCell id="T7uT3LDMt8vaUPLxzDxL-34" value="" style="endArrow=open;endFill=1;endSize=12;html=1;exitX=0.5;exitY=0;exitDx=0;exitDy=0;entryX=0.25;entryY=1;entryDx=0;entryDy=0;" parent="1" source="T7uT3LDMt8vaUPLxzDxL-4" target="T7uT3LDMt8vaUPLxzDxL-20" edge="1">
          <mxGeometry width="160" relative="1" as="geometry">
            <mxPoint x="540" y="260" as="sourcePoint" />
            <mxPoint x="380" y="260" as="targetPoint" />
          </mxGeometry>
        </mxCell>
        <mxCell id="T7uT3LDMt8vaUPLxzDxL-36" value="JButton" style="html=1;" parent="1" vertex="1">
          <mxGeometry x="717" y="220" width="110" height="50" as="geometry" />
        </mxCell>
        <mxCell id="T7uT3LDMt8vaUPLxzDxL-39" value="" style="endArrow=open;endFill=1;endSize=12;html=1;exitX=0;exitY=0;exitDx=0;exitDy=0;entryX=0.5;entryY=1;entryDx=0;entryDy=0;" parent="1" source="T7uT3LDMt8vaUPLxzDxL-16" target="T7uT3LDMt8vaUPLxzDxL-20" edge="1">
          <mxGeometry width="160" relative="1" as="geometry">
            <mxPoint x="540" y="310" as="sourcePoint" />
            <mxPoint x="380" y="310" as="targetPoint" />
          </mxGeometry>
        </mxCell>
        <mxCell id="T7uT3LDMt8vaUPLxzDxL-40" value="BufferedImage" style="html=1;" parent="1" vertex="1">
          <mxGeometry x="220" y="509" width="110" height="50" as="geometry" />
        </mxCell>
        <mxCell id="T7uT3LDMt8vaUPLxzDxL-41" value="HashMap" style="html=1;" parent="1" vertex="1">
          <mxGeometry x="220" y="600" width="110" height="50" as="geometry" />
        </mxCell>
        <mxCell id="T7uT3LDMt8vaUPLxzDxL-42" value="ArrayList" style="html=1;" parent="1" vertex="1">
          <mxGeometry x="350" y="550" width="110" height="50" as="geometry" />
        </mxCell>
        <mxCell id="T7uT3LDMt8vaUPLxzDxL-47" value="Use" style="endArrow=open;endSize=12;dashed=1;html=1;exitX=0.306;exitY=-0.002;exitDx=0;exitDy=0;entryX=0.5;entryY=1;entryDx=0;entryDy=0;exitPerimeter=0;" parent="1" source="T7uT3LDMt8vaUPLxzDxL-4" target="T7uT3LDMt8vaUPLxzDxL-1" edge="1">
          <mxGeometry width="160" relative="1" as="geometry">
            <mxPoint x="220" y="190" as="sourcePoint" />
            <mxPoint x="60" y="190" as="targetPoint" />
          </mxGeometry>
        </mxCell>
        <mxCell id="T7uT3LDMt8vaUPLxzDxL-48" value="Use" style="endArrow=open;endSize=12;dashed=1;html=1;exitX=0.828;exitY=0.012;exitDx=0;exitDy=0;entryX=0.25;entryY=1;entryDx=0;entryDy=0;exitPerimeter=0;" parent="1" source="T7uT3LDMt8vaUPLxzDxL-4" target="T7uT3LDMt8vaUPLxzDxL-2" edge="1">
          <mxGeometry width="160" relative="1" as="geometry">
            <mxPoint x="700" y="30" as="sourcePoint" />
            <mxPoint x="540" y="30" as="targetPoint" />
          </mxGeometry>
        </mxCell>
        <mxCell id="T7uT3LDMt8vaUPLxzDxL-49" value="Use" style="endArrow=open;endSize=12;dashed=1;html=1;exitX=1;exitY=0;exitDx=0;exitDy=0;entryX=0.25;entryY=1;entryDx=0;entryDy=0;" parent="1" source="T7uT3LDMt8vaUPLxzDxL-4" target="T7uT3LDMt8vaUPLxzDxL-3" edge="1">
          <mxGeometry width="160" relative="1" as="geometry">
            <mxPoint x="730" y="30" as="sourcePoint" />
            <mxPoint x="570" y="30" as="targetPoint" />
          </mxGeometry>
        </mxCell>
        <mxCell id="T7uT3LDMt8vaUPLxzDxL-35" value="" style="endArrow=open;endFill=1;endSize=12;html=1;exitX=1;exitY=0.5;exitDx=0;exitDy=0;entryX=0;entryY=0.5;entryDx=0;entryDy=0;" parent="1" source="T7uT3LDMt8vaUPLxzDxL-5" target="T7uT3LDMt8vaUPLxzDxL-13" edge="1">
          <mxGeometry width="160" relative="1" as="geometry">
            <mxPoint x="550" y="330" as="sourcePoint" />
            <mxPoint x="390" y="330" as="targetPoint" />
          </mxGeometry>
        </mxCell>
        <mxCell id="T7uT3LDMt8vaUPLxzDxL-26" value="Extends" style="endArrow=block;endSize=16;endFill=0;html=1;exitX=1;exitY=0.5;exitDx=0;exitDy=0;entryX=0.182;entryY=-0.04;entryDx=0;entryDy=0;entryPerimeter=0;" parent="1" target="T7uT3LDMt8vaUPLxzDxL-25" edge="1" source="T7uT3LDMt8vaUPLxzDxL-19">
          <mxGeometry width="160" relative="1" as="geometry">
            <mxPoint x="559" y="399" as="sourcePoint" />
            <mxPoint x="700" y="350" as="targetPoint" />
          </mxGeometry>
        </mxCell>
        <mxCell id="T7uT3LDMt8vaUPLxzDxL-44" value="" style="endArrow=open;endFill=1;endSize=12;html=1;entryX=0.383;entryY=-0.042;entryDx=0;entryDy=0;entryPerimeter=0;" parent="1" source="T7uT3LDMt8vaUPLxzDxL-19" target="T7uT3LDMt8vaUPLxzDxL-41" edge="1">
          <mxGeometry width="160" relative="1" as="geometry">
            <mxPoint x="460" y="510" as="sourcePoint" />
            <mxPoint x="300" y="510" as="targetPoint" />
          </mxGeometry>
        </mxCell>
        <mxCell id="T7uT3LDMt8vaUPLxzDxL-43" value="" style="endArrow=open;endFill=1;endSize=12;html=1;exitX=0.18;exitY=1.054;exitDx=0;exitDy=0;entryX=0.5;entryY=0;entryDx=0;entryDy=0;exitPerimeter=0;" parent="1" source="T7uT3LDMt8vaUPLxzDxL-19" target="T7uT3LDMt8vaUPLxzDxL-42" edge="1">
          <mxGeometry width="160" relative="1" as="geometry">
            <mxPoint x="580" y="510" as="sourcePoint" />
            <mxPoint x="420" y="510" as="targetPoint" />
          </mxGeometry>
        </mxCell>
        <mxCell id="T7uT3LDMt8vaUPLxzDxL-38" value="" style="endArrow=open;endFill=1;endSize=12;html=1;entryX=0.5;entryY=0;entryDx=0;entryDy=0;exitX=0.413;exitY=1.063;exitDx=0;exitDy=0;exitPerimeter=0;" parent="1" target="T7uT3LDMt8vaUPLxzDxL-16" edge="1" source="T7uT3LDMt8vaUPLxzDxL-15">
          <mxGeometry width="160" relative="1" as="geometry">
            <mxPoint x="530" y="340" as="sourcePoint" />
            <mxPoint x="340" y="340" as="targetPoint" />
          </mxGeometry>
        </mxCell>
        <mxCell id="T7uT3LDMt8vaUPLxzDxL-28" value="Extends" style="endArrow=block;endSize=16;endFill=0;html=1;exitX=0.52;exitY=1.038;exitDx=0;exitDy=0;entryX=0.5;entryY=0;entryDx=0;entryDy=0;exitPerimeter=0;" parent="1" source="T7uT3LDMt8vaUPLxzDxL-11" target="T7uT3LDMt8vaUPLxzDxL-27" edge="1">
          <mxGeometry width="160" relative="1" as="geometry">
            <mxPoint x="250" y="490" as="sourcePoint" />
            <mxPoint x="90" y="490" as="targetPoint" />
          </mxGeometry>
        </mxCell>
        <mxCell id="T7uT3LDMt8vaUPLxzDxL-29" value="" style="endArrow=open;endFill=1;endSize=12;html=1;exitX=0.335;exitY=1.034;exitDx=0;exitDy=0;entryX=0.5;entryY=0;entryDx=0;entryDy=0;exitPerimeter=0;" parent="1" source="T7uT3LDMt8vaUPLxzDxL-7" target="T7uT3LDMt8vaUPLxzDxL-8" edge="1">
          <mxGeometry width="160" relative="1" as="geometry">
            <mxPoint x="240" y="360" as="sourcePoint" />
            <mxPoint x="300" y="340" as="targetPoint" />
          </mxGeometry>
        </mxCell>
        <mxCell id="9KbmFGsRR4CCeTzWTcyC-2" style="edgeStyle=none;orthogonalLoop=1;jettySize=auto;html=1;entryX=0.664;entryY=1.04;entryDx=0;entryDy=0;entryPerimeter=0;endArrow=open;endFill=1;endSize=12;" edge="1" parent="1" source="rY51gkNo0D28meKHbAol-1" target="T7uT3LDMt8vaUPLxzDxL-36">
          <mxGeometry relative="1" as="geometry" />
        </mxCell>
        <mxCell id="rY51gkNo0D28meKHbAol-1" value="CarController" style="swimlane;fontStyle=1;align=center;verticalAlign=top;childLayout=stackLayout;horizontal=1;startSize=26;horizontalStack=0;resizeParent=1;resizeParentMax=0;resizeLast=0;collapsible=1;marginBottom=0;" parent="1" vertex="1">
          <mxGeometry x="630" y="360" width="190" height="100" as="geometry" />
        </mxCell>
        <mxCell id="rY51gkNo0D28meKHbAol-2" value="- button[]: JButton" style="text;strokeColor=none;fillColor=none;align=left;verticalAlign=top;spacingLeft=4;spacingRight=4;overflow=hidden;rotatable=0;points=[[0,0.5],[1,0.5]];portConstraint=eastwest;" parent="rY51gkNo0D28meKHbAol-1" vertex="1">
          <mxGeometry y="26" width="190" height="26" as="geometry" />
        </mxCell>
        <mxCell id="rY51gkNo0D28meKHbAol-3" value="" style="line;strokeWidth=1;fillColor=none;align=left;verticalAlign=middle;spacingTop=-1;spacingLeft=3;spacingRight=3;rotatable=0;labelPosition=right;points=[];portConstraint=eastwest;" parent="rY51gkNo0D28meKHbAol-1" vertex="1">
          <mxGeometry y="52" width="190" height="8" as="geometry" />
        </mxCell>
        <mxCell id="rY51gkNo0D28meKHbAol-4" value="+ getImage(path): BufferedImage&#xa;+ paintComponent(Graphics)" style="text;strokeColor=none;fillColor=none;align=left;verticalAlign=top;spacingLeft=4;spacingRight=4;overflow=hidden;rotatable=0;points=[[0,0.5],[1,0.5]];portConstraint=eastwest;" parent="rY51gkNo0D28meKHbAol-1" vertex="1">
          <mxGeometry y="60" width="190" height="40" as="geometry" />
        </mxCell>
        <mxCell id="9KbmFGsRR4CCeTzWTcyC-1" style="edgeStyle=none;orthogonalLoop=1;jettySize=auto;html=1;entryX=0.411;entryY=0;entryDx=0;entryDy=0;entryPerimeter=0;endArrow=open;endFill=1;endSize=12;exitX=0.994;exitY=0.063;exitDx=0;exitDy=0;exitPerimeter=0;" edge="1" parent="1" source="T7uT3LDMt8vaUPLxzDxL-15" target="rY51gkNo0D28meKHbAol-1">
          <mxGeometry relative="1" as="geometry" />
        </mxCell>
        <mxCell id="9KbmFGsRR4CCeTzWTcyC-3" style="endArrow=block;endSize=16;endFill=0;html=1;exitX=0.516;exitY=1.075;exitDx=0;exitDy=0;entryX=0.627;entryY=0.02;entryDx=0;entryDy=0;entryPerimeter=0;exitPerimeter=0;" edge="1" parent="1" source="rY51gkNo0D28meKHbAol-4" target="T7uT3LDMt8vaUPLxzDxL-25">
          <mxGeometry relative="1" as="geometry" />
        </mxCell>
        <mxCell id="9KbmFGsRR4CCeTzWTcyC-4" value="Extends" style="edgeLabel;html=1;align=center;verticalAlign=middle;resizable=0;points=[];" vertex="1" connectable="0" parent="9KbmFGsRR4CCeTzWTcyC-3">
          <mxGeometry x="-0.2222" relative="1" as="geometry">
            <mxPoint as="offset" />
          </mxGeometry>
        </mxCell>
        <mxCell id="9KbmFGsRR4CCeTzWTcyC-6" style="edgeStyle=none;orthogonalLoop=1;jettySize=auto;html=1;entryX=1;entryY=0.5;entryDx=0;entryDy=0;endArrow=open;endFill=1;endSize=12;" edge="1" parent="1" target="T7uT3LDMt8vaUPLxzDxL-7">
          <mxGeometry relative="1" as="geometry">
            <mxPoint x="630" y="373" as="sourcePoint" />
          </mxGeometry>
        </mxCell>
        <mxCell id="9KbmFGsRR4CCeTzWTcyC-9" value="Use" style="endArrow=open;endSize=12;dashed=1;html=1;entryX=0.5;entryY=0;entryDx=0;entryDy=0;exitX=0;exitY=0.864;exitDx=0;exitDy=0;exitPerimeter=0;" edge="1" parent="1" source="T7uT3LDMt8vaUPLxzDxL-13" target="T7uT3LDMt8vaUPLxzDxL-40">
          <mxGeometry width="160" relative="1" as="geometry">
            <mxPoint x="520" y="290" as="sourcePoint" />
            <mxPoint x="680" y="290" as="targetPoint" />
          </mxGeometry>
        </mxCell>
        <mxCell id="9KbmFGsRR4CCeTzWTcyC-10" value="Use" style="endArrow=open;endSize=12;dashed=1;html=1;entryX=0.25;entryY=0;entryDx=0;entryDy=0;" edge="1" parent="1" source="T7uT3LDMt8vaUPLxzDxL-7" target="T7uT3LDMt8vaUPLxzDxL-40">
          <mxGeometry width="160" relative="1" as="geometry">
            <mxPoint x="520" y="240" as="sourcePoint" />
            <mxPoint x="680" y="240" as="targetPoint" />
          </mxGeometry>
        </mxCell>
        <mxCell id="9KbmFGsRR4CCeTzWTcyC-11" value="Use" style="endArrow=open;endSize=12;dashed=1;html=1;entryX=0.25;entryY=0;entryDx=0;entryDy=0;exitX=0.825;exitY=1.077;exitDx=0;exitDy=0;exitPerimeter=0;" edge="1" parent="1" source="T7uT3LDMt8vaUPLxzDxL-7" target="T7uT3LDMt8vaUPLxzDxL-41">
          <mxGeometry width="160" relative="1" as="geometry">
            <mxPoint x="276" y="330.99199999999996" as="sourcePoint" />
            <mxPoint x="360" y="510" as="targetPoint" />
          </mxGeometry>
        </mxCell>
      </root>
    </mxGraphModel>
  </diagram>
</mxfile>
